<svg width="403" height="70" viewBox="0 0 403 70" fill="none" xmlns="http://www.w3.org/2000/svg">
<path fill-rule="evenodd" clip-rule="evenodd" d="M76.0318 67.4747C76.0318 68.4597 76.8302 69.2582 77.8152 69.2582H399.433C400.418 69.2582 401.217 68.4597 401.217 67.4747V39.3238C401.217 38.3389 400.418 37.5404 399.433 37.5404H77.8152C76.8302 37.5404 76.0318 38.3389 76.0318 39.3238V67.4747ZM143.791 58.1571V58.0891H143.927C144.118 58.0891 144.322 57.9668 144.403 57.8036L149.392 48.3696L153.796 57.6541C153.919 57.9124 154.191 58.0891 154.476 58.0891H154.626V58.1571H152.627V58.0891H152.709C152.994 58.0891 153.103 57.9124 152.981 57.6541L151.105 53.6848H146.972L144.893 57.6677C144.77 57.9124 144.865 58.0891 145.151 58.0891H145.654V58.1571H143.791ZM105.37 57.926C106.702 57.926 108.265 57.0832 108.918 56.1724H109.04C108.265 57.2599 106.648 58.3882 104.731 58.3882C102.066 58.3882 100.041 56.553 100.041 53.8479C100.041 50.9932 102.311 48.4104 105.492 48.4104C106.947 48.4104 107.83 48.9542 108.673 49.5387L108.483 50.463H108.415C107.735 49.661 106.403 48.8862 104.894 48.8862C102.488 48.8862 100.653 50.8301 100.653 53.0595C100.653 55.819 102.855 57.926 105.37 57.926ZM262.557 57.0967C262.666 57.0152 262.788 56.988 262.91 56.988C263.06 56.988 263.196 57.0288 263.305 57.1375L263.536 57.355H263.604V54.0789C263.604 53.8071 263.808 53.6032 264.08 53.6032H264.229V53.5352H261.415V53.6032H261.932C262.856 53.6032 263.169 54.5956 263.169 55.1121C263.169 56.7025 261.361 57.926 259.811 57.926C257.297 57.926 255.094 55.8189 255.094 53.0594C255.094 50.8301 256.929 48.8862 259.335 48.8862C260.845 48.8862 262.177 49.661 262.856 50.463H262.924L263.114 49.5387C262.272 48.9542 261.334 48.4104 259.879 48.4104C256.753 48.4104 254.482 50.9932 254.482 53.8479C254.482 56.553 256.508 58.3882 259.172 58.3882C260.382 58.3882 261.606 57.7629 262.557 57.0967ZM375.535 57.0967C375.644 57.0152 375.766 56.988 375.889 56.988C376.038 56.988 376.174 57.0288 376.283 57.1375L376.514 57.355H376.582V54.0789C376.582 53.8071 376.786 53.6032 377.058 53.6032H377.207V53.5352H374.394V53.6032H374.91C375.835 53.6032 376.147 54.5956 376.147 55.1121C376.147 56.7025 374.339 57.926 372.79 57.926C370.274 57.926 368.072 55.8189 368.072 53.0594C368.072 50.8301 369.907 48.8862 372.313 48.8862C373.822 48.8862 375.154 49.661 375.835 50.463H375.902L376.093 49.5387C375.25 48.9542 374.312 48.4104 372.857 48.4104C369.731 48.4104 367.461 50.9932 367.461 53.8479C367.461 56.553 369.486 58.3882 372.151 58.3882C373.36 58.3882 374.584 57.7629 375.535 57.0967ZM117.068 58.1571V58.0891H117.285C117.571 58.0891 117.761 57.8988 117.761 57.6133V49.1852C117.761 48.8998 117.571 48.7095 117.285 48.7095H117.068V48.6415H119.678C121.105 48.6415 122.723 49.4707 122.723 51.1292C122.723 52.5836 121.513 53.3585 120.425 53.6032C120.833 55.3568 121.989 58.1978 124.109 58.361V58.4289C122.07 58.4289 120.33 56.0908 119.637 53.6847H118.536V57.6133C118.536 57.8988 118.726 58.0891 119.012 58.0891H119.229V58.1571H117.068ZM130.704 58.1571H136.033L136.984 56.8113H136.916L136.413 57.2327C135.978 57.5997 135.272 57.858 134.701 57.858H132.172V52.8827H134.32C134.741 52.8827 134.945 53.0187 135.149 53.209L135.326 53.3721H135.394L135.054 52.6109H132.172V48.9405H135C135.285 48.9405 135.598 49.0901 135.774 49.3076L136.169 49.7834H136.223L135.883 48.6415H130.704V48.7095H131.003C131.248 48.7503 131.397 48.9406 131.397 49.1852V57.6133C131.397 57.8988 131.207 58.0891 130.922 58.0891H130.704L130.704 58.1571ZM160.018 50.232L160.384 49.3891C160.521 49.0765 160.725 48.9406 161.145 48.9406H162.885V57.6133C162.885 57.8988 162.695 58.0891 162.41 58.0891H162.192V58.1571H164.354V58.0891H164.136C163.851 58.0891 163.661 57.8988 163.661 57.6133V48.9406H165.401C165.822 48.9406 166.039 49.1037 166.162 49.3891L166.529 50.232H166.583L166.366 48.6415H160.181L159.963 50.232H160.018ZM173.599 57.6133V49.1852C173.599 48.8998 173.409 48.7095 173.124 48.7095H172.906V48.6415H175.068V48.7095H174.85C174.564 48.7095 174.374 48.8998 174.374 49.1852V57.6133C174.374 57.8988 174.564 58.0891 174.85 58.0891H175.068V58.1571H172.906V58.0891H173.124C173.409 58.0891 173.599 57.8988 173.599 57.6133ZM181.962 48.7095C182.247 48.7095 182.519 48.8861 182.641 49.1445L186.91 58.4289L191.491 48.9949C191.572 48.8318 191.776 48.7095 191.967 48.7095H192.239V48.6415H190.513V48.7095H190.743C191.029 48.7095 191.124 48.8862 191.002 49.1308L187.141 57.1919L183.525 49.1445C183.403 48.8862 183.511 48.7095 183.797 48.7095H184.083V48.6415H181.881V48.7095H181.962ZM205.239 58.1571H199.91V58.0891H200.127C200.412 58.0891 200.603 57.8988 200.603 57.6133V49.1852C200.603 48.9406 200.454 48.7503 200.209 48.7095H199.91V48.6415H205.089L205.429 49.7834H205.374L204.98 49.3076C204.803 49.0901 204.491 48.9405 204.205 48.9405H201.378V52.6109H204.259L204.599 53.3721H204.532L204.355 53.209C204.151 53.0187 203.947 52.8827 203.525 52.8827H201.378V57.858H203.906C204.477 57.858 205.184 57.5997 205.619 57.2327L206.122 56.8113H206.19L205.239 58.1571ZM221.645 58.1571H226.974L227.925 56.8113H227.858L227.354 57.2327C226.92 57.5997 226.213 57.858 225.641 57.858H223.113V52.8827H225.261C225.682 52.8827 225.886 53.0187 226.09 53.209L226.267 53.3721H226.335L225.995 52.6109H223.113V48.9405H225.94C226.226 48.9405 226.538 49.0901 226.716 49.3076L227.11 49.7834H227.164L226.824 48.6415H221.645V48.7095H221.944C222.189 48.7503 222.338 48.9406 222.338 49.1852V57.6133C222.338 57.8988 222.148 58.0891 221.863 58.0891H221.645L221.645 58.1571ZM235.584 48.7095H235.503V48.6415H236.713L244.352 57.0016V49.1852C244.352 48.8998 244.162 48.7095 243.877 48.7095H243.659V48.6415H245.413V48.7095H245.195C244.909 48.7095 244.719 48.8998 244.719 49.1852V58.3746H244.61L236.563 49.5931V57.6133C236.563 57.8988 236.754 58.0891 237.039 58.0891H237.256V58.1571H235.503V58.0891H235.72C236.006 58.0891 236.196 57.8988 236.196 57.6133V49.4571C236.196 48.8998 235.87 48.7095 235.584 48.7095ZM272.089 57.6133V49.1852C272.089 48.8998 271.899 48.7095 271.614 48.7095H271.396V48.6415H273.558V48.7095H273.34C273.054 48.7095 272.864 48.8998 272.864 49.1852V57.6133C272.864 57.8988 273.054 58.0891 273.34 58.0891H273.558V58.1571H271.396V58.0891H271.614C271.899 58.0891 272.089 57.8988 272.089 57.6133ZM281.24 48.7095H281.321C281.606 48.7095 281.933 48.8998 281.933 49.4571V57.6133C281.933 57.8988 281.743 58.0891 281.457 58.0891H281.24V58.1571H282.993V58.0891H282.776C282.49 58.0891 282.3 57.8988 282.3 57.6133V49.5931L290.347 58.3746H290.456V49.1852C290.456 48.8998 290.646 48.7095 290.932 48.7095H291.149V48.6415H289.396V48.7095H289.614C289.899 48.7095 290.089 48.8998 290.089 49.1852V57.0016L282.449 48.6415H281.24V48.7095ZM304.826 58.1571H299.497V58.0891H299.715C300 58.0891 300.191 57.8988 300.191 57.6133V49.1852C300.191 48.9406 300.041 48.7503 299.796 48.7095H299.497V48.6415H304.676L305.016 49.7834H304.962L304.568 49.3076C304.391 49.0901 304.078 48.9405 303.793 48.9405H300.965V52.6109H303.847L304.187 53.3721H304.119L303.943 53.209C303.739 53.0187 303.535 52.8827 303.113 52.8827H300.965V57.858H303.494C304.064 57.858 304.772 57.5997 305.206 57.2327L305.709 56.8113H305.778L304.826 58.1571ZM312.599 58.1571H317.927L318.879 56.8113H318.811L318.308 57.2327C317.873 57.5997 317.166 57.858 316.596 57.858H314.067V52.8827H316.215C316.636 52.8827 316.84 53.0187 317.044 53.209L317.22 53.3721H317.289L316.949 52.6109H314.067V48.9405H316.895C317.18 48.9405 317.493 49.0901 317.669 49.3076L318.063 49.7834H318.118L317.778 48.6415H312.599V48.7095H312.898C313.143 48.7503 313.292 48.9406 313.292 49.1852V57.6133C313.292 57.8988 313.102 58.0891 312.816 58.0891H312.599L312.599 58.1571ZM325.859 58.1571V58.0891H326.077C326.362 58.0891 326.552 57.8988 326.552 57.6133V49.1852C326.552 48.8998 326.362 48.7095 326.077 48.7095H325.859V48.6415H328.469C329.896 48.6415 331.514 49.4707 331.514 51.1292C331.514 52.5836 330.304 53.3585 329.217 53.6032C329.624 55.3568 330.78 58.1978 332.901 58.361V58.4289C330.862 58.4289 329.121 56.0908 328.428 53.6847H327.327V57.6133C327.327 57.8988 327.518 58.0891 327.803 58.0891H328.02V58.1571H325.859ZM339.331 49.1852V57.6133C339.331 57.8988 339.14 58.0891 338.855 58.0891H338.637V58.1571H340.798V58.0891H340.581C340.295 58.0891 340.105 57.8988 340.105 57.6133V49.1852C340.105 48.8998 340.295 48.7095 340.581 48.7095H340.798V48.6415H338.637V48.7095H338.855C339.14 48.7095 339.331 48.8998 339.331 49.1852ZM348.562 48.7095H348.481V48.6415H349.691L357.331 57.0016V49.1852C357.331 48.8998 357.14 48.7095 356.854 48.7095H356.637V48.6415H358.39V48.7095H358.173C357.888 48.7095 357.697 48.8998 357.697 49.1852V58.3746H357.589L349.541 49.5931V57.6133C349.541 57.8988 349.732 58.0891 350.017 58.0891H350.235V58.1571H348.481V58.0891H348.699C348.984 58.0891 349.174 57.8988 349.174 57.6133V49.4571C349.174 48.8998 348.848 48.7095 348.562 48.7095ZM121.826 51.2787C121.826 49.3348 120.086 48.8046 119.161 48.7638H118.536V53.5352H119.46C120.86 53.5352 121.826 52.7196 121.826 51.2787ZM330.617 51.2787C330.617 49.3348 328.877 48.8046 327.953 48.7638H327.327V53.5352H328.252C329.652 53.5352 330.617 52.7196 330.617 51.2787ZM151.01 53.4808L149.134 49.5251L147.068 53.4808H151.01Z" fill="white"/>
<path d="M76.0318 1.98189L77.7982 2.32657C79.3493 2.62816 80.3402 3.87761 80.3402 5.42865V26.4539C80.3402 28.0049 79.3493 29.2544 77.7982 29.556L76.0318 29.9006V31.0208H98.2203C99.3836 31.0208 100.935 31.1501 102.055 31.3655L104.855 31.8825L105.545 20.5944L104.424 20.5513C103.649 26.9278 99.2112 30.0299 95.3336 30.0299C92.1884 30.0299 89.431 27.9618 89.431 23.8688V16.9322H92.2746C95.7645 16.9322 97.1863 18.0955 97.8756 23.438H98.9096V9.34935L97.8756 9.30627C97.1863 14.6918 95.7645 15.812 92.3177 15.812H89.431V8.01373C89.431 3.9207 92.0161 1.85266 95.032 1.85266C98.6942 1.85266 102.916 4.95474 103.692 11.3313L104.812 11.2882L104.166 3.05176e-05L101.365 0.517044C100.202 0.732464 98.6942 0.861725 97.5309 0.861725H76.0318V1.98189Z" fill="white"/>
<path d="M108.604 29.9006V31.0208H126.268V29.9006C124.157 29.5129 122.046 29.2113 122.046 26.4539V17.9662C123.339 17.9662 124.588 17.9662 125.837 17.9232H125.794L130.749 31.0208H144.105V29.9006L143.028 29.4267C141.348 28.7374 140.271 27.5741 139.366 25.9799L134.239 16.846C138.03 15.7258 140.529 13.6147 140.529 9.65092C140.529 0.732434 128.552 0 123.382 0C117.651 0 114.377 0.517014 108.604 0.861694V1.98189C110.715 2.41273 112.912 2.32657 112.912 5.04089V26.4539C112.912 29.2113 110.715 29.5129 108.604 29.9006ZM122.003 6.37651C122.003 2.97283 123.856 1.16328 126.441 1.12019C132.688 1.12019 134.713 16.7599 122.003 16.7599V6.37651Z" fill="white"/>
<path d="M144.235 31.0208H161.899V29.9006C159.788 29.4698 157.591 29.2113 157.591 26.4539V5.42865C157.591 2.71433 159.788 2.41274 161.899 1.98189V0.861694H144.235V1.98189C146.346 2.41273 148.543 2.71433 148.543 5.42865V26.4539C148.543 29.2113 146.346 29.4698 144.235 29.9006V31.0208Z" fill="white"/>
<path d="M163.579 15.8982C163.579 25.5922 170.258 31.8825 179.865 31.8825C181.89 31.8825 184.777 31.5378 186.974 30.9778C187.534 30.8054 188.095 30.7623 188.655 30.7623C189.387 30.7623 190.033 30.8485 190.593 31.107L192.446 31.8825L193.135 20.4221L192.015 20.379C191.671 26.2816 186.888 30.6331 182.278 30.6331C177.797 30.6331 173.489 26.5831 173.489 15.9844C173.489 5.34249 177.797 1.29256 182.278 1.29256C186.931 1.29256 191.671 5.60101 192.015 11.5036L193.135 11.4605L192.446 1.52588e-05L190.593 0.775543C190.033 1.03405 189.387 1.12022 188.655 1.12022C188.095 1.12022 187.534 1.07714 186.974 0.9048C184.777 0.3447 181.89 0.0431061 179.865 0.0431061C170.258 0.0431061 163.579 6.20417 163.579 15.8982Z" fill="white"/>
<path d="M210.929 5.47173V21.0683C210.886 28.2203 217.521 31.7533 224.199 31.8825C230.921 31.9687 236.694 27.5741 236.694 20.379V9.99561C236.651 4.09303 238.977 2.41274 241.088 1.98189V0.861694H229.887V1.98189C231.998 2.41273 235.574 4.09303 235.617 9.99561V20.379C235.617 25.0321 232.213 28.9959 227.732 28.9097C223.855 28.7804 219.977 26.2815 219.977 21.1114V5.47174C219.977 2.71433 222.174 2.41274 224.286 1.9819V0.861694H206.664V1.9819C208.775 2.41274 210.929 2.71433 210.929 5.47173Z" fill="white"/>
<path d="M242.812 1.98189L244.578 2.32657C246.086 2.62816 247.12 3.87761 247.12 5.42865V26.4539C247.12 28.0049 246.129 29.2544 244.578 29.556L242.812 29.9006V31.0208H264.268C265.431 31.0208 266.939 31.1501 268.102 31.3655L270.903 31.8825L271.506 18.1386H270.429C269.438 26.4539 264.914 29.9006 261.037 29.8576C259.055 29.8576 256.168 28.2634 256.168 23.8688V5.42867C256.168 3.87763 257.159 2.62817 258.71 2.32658L260.476 1.9819V0.861694H242.812V1.98189Z" fill="white"/>
<path d="M273.531 1.98189C275.642 2.41273 277.84 2.88666 277.84 5.64407V26.4539C277.84 29.2113 275.642 29.4698 273.531 29.9006V31.0208C278.055 31.2363 283.01 31.8825 288.74 31.8825C298.779 31.8825 307.654 27.531 307.697 16.0274C307.783 4.35153 298.779 1.52588e-05 288.74 1.52588e-05C283.096 1.52588e-05 278.184 0.646274 273.531 0.861694V1.98189ZM286.887 25.6353V6.29033C286.887 2.62815 288.826 1.24944 291.153 1.24944C296.107 1.24944 297.831 8.40147 297.788 15.9843C297.745 23.5672 295.935 30.6762 291.11 30.6331C288.783 30.59 286.887 28.9097 286.887 25.6353Z" fill="white"/>
<path d="M318.167 31.0208V29.9006C316.055 29.4698 310.885 28.9959 313.427 23.481L314.031 22.1454H325.75L326.223 23.1795C328.722 28.6943 327.731 29.4698 325.62 29.9006V31.0208H342.682V29.9006C341.001 29.556 338.459 28.3065 336.176 23.1795L325.663 0L322.432 0.861694L312.135 23.481C309.248 29.8145 306.663 29.4698 304.552 29.9006V31.0208H318.167ZM314.548 20.9821L319.89 9.22008L325.232 20.9821H314.548Z" fill="white"/>
<path d="M343.587 1.98189L345.353 2.32657C346.861 2.62816 347.895 3.87761 347.895 5.42865V26.4539C347.895 28.0049 346.904 29.2544 345.353 29.556L343.587 29.9006V31.0208H365.043C366.206 31.0208 367.714 31.1501 368.877 31.3655L371.678 31.8825L372.281 18.1386H371.204C370.213 26.4539 365.689 29.9006 361.811 29.8576C359.829 29.8576 356.943 28.2634 356.943 23.8688V5.42867C356.943 3.87763 357.934 2.62817 359.485 2.32658L361.251 1.9819V0.861694H343.587V1.98189Z" fill="white"/>
<path d="M374.306 1.98189L376.072 2.32657C377.58 2.62816 378.614 3.87761 378.614 5.42865V26.4539C378.614 28.0049 377.623 29.2544 376.072 29.556L374.306 29.9006V31.0208H395.762C396.925 31.0208 398.433 31.1501 399.596 31.3655L402.397 31.8825L403 18.1386H401.923C400.932 26.4539 396.408 29.9006 392.53 29.8576C390.549 29.8576 387.662 28.2634 387.662 23.8688V5.42867C387.662 3.87763 388.653 2.62817 390.204 2.32658L391.97 1.9819V0.861694H374.306V1.98189Z" fill="white"/>
<path d="M7.62939e-06 69.2582V57.6523C1.63921 59.0932 3.31972 59.0027 8.54001 57.7796C10.5217 57.3152 14.0857 56.4771 16.4613 55.9167C18.8367 55.3563 22.3591 54.6125 24.2892 54.2634C26.2194 53.9142 29.7416 53.278 32.1171 52.8507C34.4927 52.4234 38.3821 52.1422 40.7576 52.225C43.1332 52.3078 45.3776 52.1822 45.7488 51.9447C46.622 51.3862 46.6022 51.0149 45.5732 48.9523C45.1043 48.0122 44.8203 46.9458 44.9418 46.5799C45.0636 46.2139 44.172 45.123 42.96 44.1593C40.9157 42.5335 40.463 42.4096 36.7062 42.4096C34.4793 42.4096 31.0775 42.7869 29.1473 43.242C27.2173 43.6972 25.0316 44.1602 24.2892 44.2725C20.4223 44.8577 15.6216 45.8026 13.2226 46.4496C11.7378 46.8501 7.6537 47.6635 4.14901 48.2558C2.44169 48.5443 1.07603 48.7975 0 49.0388V-1.52588e-05H69.2582V11.966L68.5388 10.5432H63.0408C58.0976 10.5432 51.6757 11.2732 43.9963 12.7089C42.5116 12.9866 38.9939 13.6071 36.1797 14.0876C29.5199 15.2249 28.0715 15.9719 28.0715 18.2521C28.0715 21.198 29.0607 23.8298 30.3646 24.3871C31.7268 24.9691 33.0435 24.799 42.6459 22.7903C52.5128 20.7263 57.7538 20.0689 65.3228 19.9451C66.763 19.9216 68.1229 19.8958 69.2582 19.8713V69.2581L7.62939e-06 69.2582ZM64.2809 11.7435C64.778 11.7524 64.6195 11.938 64.0516 12.3862C63.1256 13.117 63.2219 13.1899 65.3567 13.3459C66.6271 13.4388 67.7604 13.7988 67.8764 14.1499C68.1912 15.1082 66.1579 15.9742 64.4112 15.625C63.5647 15.4555 60.2035 15.553 56.9427 15.8401C50.2093 16.4328 46.9033 16.1925 47.3058 15.1437C47.5097 14.6122 47.0372 14.5541 45.2419 14.8832C42.9653 15.3004 41.7506 15.1456 43.2432 14.6284C44.7383 14.1101 52.0386 13.3107 52.5263 13.612C52.801 13.7819 53.2084 13.6266 53.4322 13.2638C53.656 12.9016 55.269 12.5133 57.0164 12.4032C58.7637 12.293 61.2856 12.0668 62.6219 11.8992C63.4482 11.7954 63.9827 11.7383 64.2809 11.7435ZM54.041 28.3874C52.8731 28.3785 51.2667 28.4408 48.9591 28.5573C45.0412 28.755 40.4996 29.1535 38.8664 29.4434C35.944 29.9619 31.4081 30.4879 19.7227 31.66C16.4684 31.9865 13.2656 32.4595 12.6054 32.7104C10.4249 33.5395 10.843 38.0303 13.3698 40.9121C14.3173 41.9929 16.414 42.1033 21.2571 41.3282C25.3566 40.6721 35.3901 39.3575 41.8361 38.6302C44.5086 38.3288 49.9034 38.081 53.823 38.081C59.8897 38.081 61.0217 37.9462 61.4469 37.1864C61.9336 36.3169 60.5248 33.1152 59.3294 32.3764C59.0622 32.2113 58.8425 31.6096 58.8425 31.0401C58.8425 30.4706 58.2225 29.598 57.4637 29.1008C56.7189 28.6129 55.9874 28.402 54.041 28.3874ZM50.1312 30.9297C53.3519 30.9399 55.7195 31.0685 56.1728 31.3487C56.4498 31.5199 56.931 32.1331 57.24 32.7104C57.7652 33.6918 57.5977 33.7634 54.6779 33.8088C45.5202 33.9513 40.6497 34.2024 39.744 34.5817C39.041 34.8761 38.5807 34.7318 38.2322 34.109C37.9204 33.5517 37.2822 33.3046 36.5449 33.4549C32.2184 34.3375 31.3237 34.3474 31.6443 33.5116C32.076 32.3867 31.3277 32.457 30.4326 33.6248C29.907 34.3107 29.5939 34.3935 29.286 33.9305C29.0528 33.5798 27.7722 33.2158 26.4408 33.1209C24.0307 32.9492 24.0371 32.9462 27.7997 32.2264C31.8346 31.4544 43.0459 30.9061 50.1312 30.9297ZM29.2521 46.2004C29.743 46.2071 30.2201 46.3843 30.5742 46.7384C30.9564 47.1207 31.8987 47.1281 33.5241 46.764C34.8374 46.4697 37.1015 46.4 38.5578 46.6083C40.0141 46.8166 41.3081 47.2904 41.4313 47.6614C41.5544 48.0324 41.4555 48.3767 41.2076 48.4258C39.8641 48.6913 32.5777 48.9802 28.4594 48.9326C25.4972 48.8981 21.795 49.2952 18.5818 49.9914C12.0355 51.4097 10.7018 51.1795 14.4427 49.278C16.0051 48.4838 17.6197 47.9645 18.0325 48.1229C18.8084 48.4207 23.7751 47.6397 25.5943 46.9339C26.3171 46.6533 26.5101 46.724 26.2369 47.166C25.6674 48.0873 26.7381 47.9395 27.528 46.9876C27.9663 46.4595 28.6208 46.1903 29.2521 46.2004Z" fill="white"/>
</svg>
